# xmcd
#
# Track frame offsets: 
#        150
#        12360
#        25640
#        38518
#        51948
#        63740
#        76173
#        89900
#        102463
#        115838
#        129508
#        143520
#        157895
#        171450
#
# Disc length: 2489 seconds
#
# Revision: 0
# Processed by: cddbd v1.5.2PL0 Copyright (c) Steve Scherf et al.
# Submitted via: ExactAudioCopy v0.99pb1
#
DISCID=b409b70e
DTITLE=Various Artist - St. Louis Town: 1929-1933
DYEAR=1991
DGENRE=Blues
TTITLE0=Henry Spaulding - Cairo Blues
TTITLE1=Henry Townsend - Long Ago (And Far Away)
TTITLE2=Hi Henry Brown  - Skin Man
TTITLE3=Charley Jordan - Hunkie Tunkie Blues
TTITLE4=Charley Jordan - Spoonful Blues
TTITLE5=Teddy Darby - Built Right On The Ground
TTITLE6=Teddy Darby - Lawdy Lawdy Worried Blues
TTITLE7=Jim Jackson  - St. Louis Blues
TTITLE8=Hi Henry Brown  - Nut Factory Blues
TTITLE9=Charley Jordan - Keep It Clean, No. 2
TTITLE10=Charley Jordan - You Run and Tell Your Daddy
TTITLE11=Joe Stone  - It's Hard Time
TTITLE12=Jelly Jaw Short - Barefoot Blues
TTITLE13=Jelly Jaw Short - Snake Doctor Blues
EXTD=
EXTT0=
EXTT1=
EXTT2=
EXTT3=
EXTT4=
EXTT5=
EXTT6=
EXTT7=
EXTT8=
EXTT9=
EXTT10=
EXTT11=
EXTT12=
EXTT13=
PLAYORDER=
